# xmcd
#
# Track frame offsets:
# 150
# 13610
# 28953
# 41321
# 55002
# 66975
# 80003
# 90923
# 106060
# 119255
# 132262
# 142765
# 154439
# 166094
#
# Disc length: 2383 seconds
#
#
# Revision: 0
# Processed by: cddbd v1.5.2PL0 Copyright (c) Steve Scherf et al.
# Submitted via: FreeRIP 2.945 
#
DISCID=ab094d0e
DTITLE=Ray Charles - Soul Of a Man
DYEAR=2006
DGENRE=Blues
TTITLE0=What'd I Say
TTITLE1=(Night time is) The Right Time
TTITLE2=That's Enough
TTITLE3=A Fool For You
TTITLE4=It Should've Been Me
TTITLE5=I Got A Woman
TTITLE6=Just For A Thrill
TTITLE7=Drown In My Own Tears
TTITLE8=Don't You Know
TTITLE9=Ain't That Love
TTITLE10=Swanee River Rock (Talkin About That River)
TTITLE11=Halleljah, I Lover Her So
TTITLE12=Lonely Avenue
TTITLE13=Greenbacks
EXTD=
EXTT0=
EXTT1=
EXTT2=
EXTT3=
EXTT4=
EXTT5=
EXTT6=
EXTT7=
EXTT8=
EXTT9=
EXTT10=
EXTT11=
EXTT12=
EXTT13=
PLAYORDER=
